<svg xmlns="http://www.w3.org/2000/svg" viewBox="0 0 268 34">
  <g fill="none">
    <path fill="#F6F6F6" d="M9.704 33V21.24l-.576-6.912h.624l2.016 7.392 2.592 7.92h10.992l2.592-7.92 1.968-7.392h.624l-.528 6.912V33h9.024V.84H26.84l-4.272 12.672-2.208 8.304h-.624l-2.064-8.304L12.872.84H.68V33zm105.648 0v-3.36h.288c1.344 2.304 3.936 3.84 7.92 3.84 6.24 0 9.744-5.04 9.744-12.816 0-7.776-3.408-12.816-9.936-12.816-3.552 0-5.952 1.488-7.008 3.744h-.432V.84h-8.976V33h8.4Zm.576-11.472v-1.776c0-3.36 1.344-4.08 4.176-4.08 3.792 0 4.224 1.68 4.224 4.992 0 3.312-.48 4.944-4.224 4.944-2.832 0-4.176-.672-4.176-4.08ZM144.296 6.12V.84h-8.976v5.28h8.976Zm.048 26.88V8.328h-9.024V33h9.024Zm11.472.48c3.648 0 6.72-1.44 8.064-4.224h.432V33h8.4V8.328h-8.976v14.064c0 2.64-.912 3.36-3.888 3.36-3.168 0-3.792-.864-3.792-3.504V8.328h-9.024V24.12c0 5.088 2.4 9.36 8.784 9.36Zm30.96 0c7.248 0 11.088-3.312 11.088-7.968 0-3.984-1.872-6.144-7.392-7.296l-5.52-1.152c-1.584-.336-1.824-.672-1.824-1.296 0-.72.288-1.152 2.448-1.152 2.304 0 2.928.432 2.928 1.92v.432h8.448v-.912c0-5.424-4.8-8.208-11.136-8.208-7.296 0-10.992 3.36-10.992 7.92 0 4.8 2.784 6.72 7.68 7.632l4.704.864c2.064.384 2.304.624 2.304 1.392 0 .912-.24 1.152-2.736 1.152-3.024 0-3.456-.336-3.456-1.68v-.624h-8.4v.144c0 5.616 3.696 8.832 11.856 8.832Zm23.712-.48V15.72h4.8V8.328h-5.184c0-1.344.672-1.68 2.016-1.68h3.168V.84c-1.68-.384-2.832-.576-4.56-.576-6.048 0-8.784 3.696-9.216 8.064h-3.552v7.392h3.504V33h9.024Zm15.552 0V.84h-8.976V33h8.976Zm11.856-26.88V.84h-8.976v5.28h8.976Zm.048 26.88V8.328h-9.024V33h9.024Zm10.608 0 3.984-7.344h.432L257.192 33h10.128l-7.344-12v-.432l7.344-12.24h-9.744l-3.984 7.536h-.432l-4.272-7.536h-10.08l7.344 11.952v.432L238.808 33z"/>
    <path fill="#560986" d="M73.934 7.865 73 8.85l2.442 5.932L79.258 18 82 14.813l-1.674-4.686L76.026 6a16.807 16.807 0 0 0-2.092 1.865Z"/>
    <path fill="#870FD2" d="M82.047 14.442c1.068-1.18 2.356-1.778 3.828-1.778 2.102 0 5.438 1.45 5.438 5.336 0 3.887-3.336 5.335-5.438 5.335-1.472 0-2.76-.598-3.828-1.777L79.35 17.72 73.2 8.306 72 19.197l1.2 8.497.918 1.013c2.317 2.558 5.26 4.271 8.51 4.955 3.018.635 6.17.372 9.116-.759 2.945-1.13 5.46-3.045 7.273-5.535C100.968 24.687 102 21.448 102 18c0-3.447-1.032-6.686-2.983-9.368-1.813-2.49-4.328-4.404-7.274-5.535-2.945-1.132-6.098-1.394-9.116-.759a15.596 15.596 0 0 0-6.453 3.036l5.873 9.068Z"/>
    <path fill="#9310E5" d="M72.076 28.707 73 27.694l-2.417-6.102-3.776-3.311-2.714 3.278 1.657 4.821 4.255 4.246a16.854 16.854 0 0 0 2.07-1.919Z"/>
    <path fill="#9E16F3" d="M64.092 21.558c-1.076 1.18-2.373 1.778-3.855 1.778-2.117 0-5.475-1.45-5.475-5.336 0-3.887 3.358-5.335 5.475-5.335 1.482 0 2.779.598 3.854 1.777l2.716 3.839L73 27.694V8.306l-.924-1.013c-2.333-2.558-5.296-4.271-8.569-4.955-3.039-.635-6.213-.372-9.18.759-2.965 1.13-5.498 3.045-7.323 5.535C45.04 11.313 44 14.552 44 18c0 3.447 1.039 6.686 3.004 9.368 1.825 2.49 4.358 4.404 7.324 5.535 2.966 1.132 6.14 1.394 9.18.759a15.753 15.753 0 0 0 6.497-3.036l-5.913-9.068Z"/>
  </g>
</svg>