<?xml version="1.0" encoding="UTF-8"?>
<svg width="210px" height="95px" viewBox="0 0 210 95" version="1.1" xmlns="http://www.w3.org/2000/svg" xmlns:xlink="http://www.w3.org/1999/xlink">
    <title>Group 2</title>
    <g id="Page-1" stroke="none" stroke-width="1" fill="none" fill-rule="evenodd">
        <g id="Medium" transform="translate(-540.000000, -325.000000)">
            <g id="Group-2" transform="translate(540.000000, 325.000000)">
                <g id="Group">
                    <rect id="Rectangle" stroke="#F6F6F6" stroke-width="4" fill="#F6F6F6" x="2" y="2" width="206" height="79" rx="7"></rect>
                    <g id="POWERED-BY" transform="translate(26.265500, 22.880000)" fill="#9E16F3" fill-rule="nonzero">
                        <path d="M0.972,6.12 L0.972,4.176 L2.565,4.176 C3.825,4.176 4.752,3.429 4.752,2.133 C4.752,0.837 3.825,0.09 2.565,0.09 L0,0.09 L0,6.12 L0.972,6.12 Z M2.682,0.963 C3.474,0.963 3.789,1.269 3.789,2.133 C3.789,2.997 3.474,3.303 2.682,3.303 L0.972,3.303 L0.972,0.963 L2.682,0.963 Z" id="Shape"></path>
                        <path d="M8.1,6.21 C9.81,6.21 10.908,4.986 10.908,3.105 C10.908,1.224 9.81,0 8.1,0 C6.381,0 5.283,1.224 5.283,3.105 C5.283,4.986 6.381,6.21 8.1,6.21 Z M8.1,5.274 C6.849,5.274 6.318,4.671 6.318,3.105 C6.318,1.539 6.849,0.936 8.1,0.936 C9.351,0.936 9.873,1.539 9.873,3.105 C9.873,4.671 9.351,5.274 8.1,5.274 Z" id="Shape"></path>
                        <polygon id="Path" points="13.887 6.12 14.805 3.051 15.291 1.179 15.372 1.179 15.858 3.051 16.776 6.12 18.189 6.12 19.593 0.09 18.495 0.09 17.739 3.483 17.478 5.148 17.406 5.148 17.019 3.483 16.02 0.09 14.661 0.09 13.662 3.483 13.275 5.148 13.203 5.148 12.942 3.483 12.195 0.09 11.079 0.09 12.474 6.12"></polygon>
                        <polygon id="Path" points="24.417 6.12 24.417 5.247 21.078 5.247 21.078 3.528 24.282 3.528 24.282 2.646 21.078 2.646 21.078 0.963 24.417 0.963 24.417 0.09 20.106 0.09 20.106 6.12"></polygon>
                        <path d="M26.172,6.12 L26.172,3.798 L26.883,3.798 C27.603,3.798 27.855,4.041 28.134,4.563 L28.989,6.12 L30.114,6.12 L29.214,4.446 C28.989,4.032 28.728,3.762 28.287,3.618 L28.287,3.546 C29.349,3.492 29.961,2.889 29.961,1.89 C29.961,0.747 29.124,0.09 27.792,0.09 L25.2,0.09 L25.2,6.12 L26.172,6.12 Z M26.172,0.963 L27.909,0.963 C28.692,0.963 28.989,1.269 28.989,1.98 C28.989,2.709 28.692,2.997 27.909,2.997 L26.172,2.997 L26.172,0.963 Z" id="Shape"></path>
                        <polygon id="Path" points="34.974 6.12 34.974 5.247 31.635 5.247 31.635 3.528 34.839 3.528 34.839 2.646 31.635 2.646 31.635 0.963 34.974 0.963 34.974 0.09 30.663 0.09 30.663 6.12"></polygon>
                        <path d="M37.899,6.12 C39.762,6.12 40.95,4.968 40.95,3.105 C40.95,1.242 39.762,0.09 37.899,0.09 L35.757,0.09 L35.757,6.12 L37.899,6.12 Z M37.899,0.963 C39.339,0.963 39.915,1.557 39.915,3.105 C39.915,4.653 39.339,5.247 37.899,5.247 L36.729,5.247 L36.729,0.963 L37.899,0.963 Z" id="Shape"></path>
                        <path d="M46.323,6.12 C47.592,6.12 48.321,5.49 48.321,4.464 C48.321,3.672 47.853,3.078 46.935,2.961 L46.935,2.889 C47.709,2.772 48.105,2.295 48.105,1.593 C48.105,0.576 47.394,0.09 46.215,0.09 L43.443,0.09 L43.443,6.12 L46.323,6.12 Z M44.415,0.963 L46.152,0.963 C46.881,0.963 47.142,1.161 47.142,1.782 C47.142,2.394 46.854,2.592 46.125,2.592 L44.415,2.592 L44.415,0.963 Z M44.415,3.402 L46.296,3.402 C47.025,3.402 47.34,3.609 47.34,4.329 C47.34,5.04 47.025,5.247 46.296,5.247 L44.415,5.247 L44.415,3.402 Z" id="Shape"></path>
                        <polygon id="Path" points="51.597 6.12 51.597 3.897 53.946 0.09 52.848 0.09 51.714 1.953 51.165 2.898 51.102 2.898 50.544 1.953 49.401 0.09 48.294 0.09 50.634 3.879 50.634 6.12"></polygon>
                    </g>
                    <g id="THE-MOVIE-DB" transform="translate(25.656000, 38.680000)" fill="#9E16F3" fill-rule="nonzero">
                        <polygon id="Path" points="9.456 16.32 9.456 4.296 14.4 4.296 14.4 0.24 1.13686838e-13 0.24 1.13686838e-13 4.296 4.944 4.296 4.944 16.32"></polygon>
                        <polygon id="Path" points="19.704 16.32 19.704 10.272 25.728 10.272 25.728 16.32 30.24 16.32 30.24 0.24 25.728 0.24 25.728 6.216 19.704 6.216 19.704 0.24 15.192 0.24 15.192 16.32"></polygon>
                        <polygon id="Path" points="45 16.32 45 12.264 36.528 12.264 36.528 10.272 44.64 10.272 44.64 6.24 36.528 6.24 36.528 4.296 45 4.296 45 0.24 32.016 0.24 32.016 16.32"></polygon>
                        <polygon id="Path" points="54.6 16.32 54.6 10.44 54.312 6.984 54.624 6.984 55.632 10.68 56.928 14.64 62.424 14.64 63.72 10.68 64.704 6.984 65.016 6.984 64.752 10.44 64.752 16.32 69.264 16.32 69.264 0.24 63.168 0.24 61.032 6.576 59.928 10.728 59.616 10.728 58.584 6.576 56.184 0.24 50.088 0.24 50.088 16.32"></polygon>
                        <path d="M78.528,16.56 C83.616,16.56 86.592,13.296 86.592,8.28 C86.592,3.264 83.616,0 78.528,0 C73.416,0 70.44,3.264 70.44,8.28 C70.44,13.296 73.416,16.56 78.528,16.56 Z M78.528,12.168 C76.032,12.168 75.288,11.376 75.288,8.28 C75.288,5.184 76.032,4.392 78.528,4.392 C81,4.392 81.744,5.184 81.744,8.28 C81.744,11.376 81,12.168 78.528,12.168 Z" id="Shape"></path>
                        <polygon id="Path" points="97.488 16.32 103.008 0.24 97.92 0.24 94.584 11.28 94.272 11.28 90.864 0.24 85.776 0.24 91.272 16.32"></polygon>
                        <polygon id="Path" points="107.832 16.32 107.832 0.24 103.32 0.24 103.32 16.32"></polygon>
                        <polygon id="Path" points="122.592 16.32 122.592 12.264 114.12 12.264 114.12 10.272 122.232 10.272 122.232 6.24 114.12 6.24 114.12 4.296 122.592 4.296 122.592 0.24 109.608 0.24 109.608 16.32"></polygon>
                        <path d="M134.616,16.32 C139.896,16.32 142.8,13.368 142.8,8.28 C142.8,3.192 139.896,0.24 134.616,0.24 L127.68,0.24 L127.68,16.32 L134.616,16.32 Z M134.376,4.296 C137.208,4.296 137.928,4.896 137.928,8.28 C137.928,11.664 137.208,12.264 134.376,12.264 L132.192,12.264 L132.192,4.296 L134.376,4.296 Z" id="Shape"></path>
                        <path d="M152.952,16.32 C156.888,16.32 158.688,14.664 158.688,11.856 C158.688,9.696 157.368,8.04 154.656,7.944 L154.656,7.632 C156.864,7.44 157.944,6.216 157.944,4.2 C157.944,1.464 156.144,0.24 152.472,0.24 L143.928,0.24 L143.928,16.32 L152.952,16.32 Z M148.44,4.296 L152.136,4.296 C153.072,4.296 153.432,4.464 153.432,5.328 C153.432,6.144 153.168,6.36 152.232,6.36 L148.44,6.36 L148.44,4.296 Z M148.44,9.864 L152.784,9.864 C153.696,9.864 154.104,10.008 154.104,11.088 C154.104,12.144 153.648,12.264 152.784,12.264 L148.44,12.264 L148.44,9.864 Z" id="Shape"></path>
                    </g>
                </g>
                <path d="M9,78.118034 L17.190983,94.5 L0.809016994,94.5 L9,78.118034 Z" id="Triangle" stroke="#F6F6F6" fill="#F6F6F6" transform="translate(9.000000, 86.000000) scale(-1, -1) translate(-9.000000, -86.000000) "></path>
            </g>
        </g>
    </g>
</svg>