<?xml version="1.0" encoding="UTF-8"?>
<svg width="204px" height="32px" viewBox="0 0 204 32" version="1.1" xmlns="http://www.w3.org/2000/svg" xmlns:xlink="http://www.w3.org/1999/xlink">
    <title>Logo</title>
    <g id="Page-1" stroke="none" stroke-width="1" fill-rule="evenodd">
        <g id="Logo" fill-rule="nonzero">
            <g id="M" transform="translate(0.000000, 4.827751)">
                <polygon id="Path" points="31.5789474 0 31.5789474 26.7942584 24.0583232 26.7942584 24.0583232 12.0099087 18.9550425 26.7942584 12.6622754 26.7942584 7.52062416 11.8958906 7.52062416 26.7942584 0 26.7942584 0 0 9.09381595 0 15.8854 17.4067664 22.523502 0"></polygon>
            </g>
            <g id="infinite" transform="translate(35.492823, 6.698565)">
                <path d="M22.0095694,4.97474336 L24.1460659,9.67877919 L26.3899662,11.9156311 C26.687296,11.5496473 27.0800366,11.130191 27.568188,10.6572624 C28.0563395,10.1843338 28.446056,9.85817275 28.7373374,9.67877919 L27.7811857,5.91851295 L24.2481013,2.62352116 C23.6967885,3.07378015 23.2697555,3.46468513 22.7689363,4.06643647 L22.0095694,4.97474336 Z" id="Path" fill="#CC2C2C"></path>
                <path d="M28.7441339,9.67365095 C29.5620563,8.75674749 30.5479211,8.29170717 31.674513,8.29170717 C33.2840038,8.29170717 35.8373308,9.41804894 35.8373308,12.4401565 C35.8373308,15.4623513 33.2840038,16.5886058 31.6745992,16.5886058 C30.5479211,16.5886058 29.5620563,16.1236527 28.7442201,15.2067493 L26.6794762,12.2219916 L21.9713194,4.90282082 L21.0526316,13.3710225 L21.9713194,19.9774921 L22.6740937,20.7653292 C24.4476513,22.7538587 26.7002322,24.0857991 29.1882769,24.6174233 C31.4989917,25.1109996 33.9123667,24.9071463 36.167273,24.0277672 C38.4221792,23.1483008 40.347574,21.6599799 41.7352947,19.7237227 C43.229379,17.6390261 44.0191388,15.1203559 44.0191388,12.4401565 C44.0191388,9.75995698 43.229379,7.24137406 41.7352086,5.1566775 C40.3474878,3.22042034 38.4220931,1.73218663 36.1671868,0.852720263 C33.9122806,-0.0268333653 31.4989056,-0.230599386 29.1881908,0.262976894 C27.3869012,0.647819785 25.7101473,1.45424454 24.2481013,2.62352116 L28.7441339,9.67365095 Z" id="Path" fill="#FC3636"></path>
                <g id="Group">
                    <path d="M21.3081003,20.7653991 L22.0095694,19.977562 L20.1754673,15.2327371 L17.3096666,12.6583912 L15.2498804,15.2072554 L16.507177,18.9561139 L19.7367374,22.2568616 C20.2930809,21.8111071 20.8194191,21.3142147 21.3081003,20.7653991 Z" id="Path" fill="#FC3636"></path>
                    <path d="M15.2485048,15.2067318 C14.4320013,16.1236353 13.4478469,16.5886756 12.3232095,16.5886756 C10.7165109,16.5885883 8.16761364,15.4623338 8.16761364,12.4402263 C8.16761364,9.41803152 10.7165109,8.29177702 12.3231235,8.29177702 C13.4477609,8.29177702 14.4320013,8.75673006 15.2484188,9.67363352 L17.3095806,12.6583039 L22.0095694,19.977562 L22.0095694,4.90289066 L21.3081003,4.11505356 C19.5376196,2.12652409 17.2889466,0.794583711 14.8052183,0.262959472 C12.4985123,-0.230616808 10.0893242,-0.0267635214 7.83832984,0.852615575 C5.58733553,1.73208194 3.6652811,3.22040292 2.27996785,5.15666008 C0.788389653,7.24135664 0,9.76002683 0,12.4402263 C0,15.1204258 0.788389653,17.6390087 2.27996785,19.7237053 C3.6652811,21.6599624 5.58733553,23.1481961 7.83832984,24.0276625 C10.0893242,24.9072161 12.4985123,25.1109822 14.8052183,24.6174059 C16.6033829,24.232563 18.2772279,23.4261382 19.7367374,22.2568616 L15.2485048,15.2067318 Z" id="Path" fill="#FC5B3F"></path>
                </g>
            </g>
            <g id="iusflix" transform="translate(83.425837, 0.000000)">
                <path d="M4.42015579,7.7602766 C3.08770303,7.7602766 2.01789721,7.3953131 1.21073832,6.66538609 C0.403579442,5.93545909 -8.8817842e-15,5.01984889 -8.8817842e-15,3.91855551 C-8.8817842e-15,2.79165066 0.403579442,1.85683186 1.21073832,1.11409912 C2.01789721,0.371366372 3.08770303,0 4.42015579,0 C5.72698446,0 6.78397823,0.371366372 7.59113711,1.11409912 C8.398296,1.85683186 8.80187544,2.79165066 8.80187544,3.91855551 C8.80187544,5.01984889 8.398296,5.93545909 7.59113711,6.66538609 C6.78397823,7.3953131 5.72698446,7.7602766 4.42015579,7.7602766 Z M8.14846111,9.75797157 L8.14846111,31.3100269 L0.614978197,31.3100269 L0.614978197,9.75797157 L8.14846111,9.75797157 Z" id="Shape"></path>
                <path d="M34.5156513,9.75797157 L34.5156513,31.3100269 L26.9437322,31.3100269 L26.9437322,28.23665 C26.30313,29.209886 25.4190988,29.9974389 24.2916388,30.5993085 C23.1641787,31.2011781 21.8701621,31.5021129 20.4095889,31.5021129 C17.8984279,31.5021129 15.9189669,30.6761429 14.4712057,29.0242028 C13.0234445,27.3722628 12.2995639,25.1248559 12.2995639,22.2819823 L12.2995639,9.75797157 L19.7946107,9.75797157 L19.7946107,21.3215521 C19.7946107,22.5509028 20.1213179,23.5177359 20.7747322,24.2220515 C21.4281465,24.926367 22.2929596,25.2785248 23.3691715,25.2785248 C24.4710074,25.2785248 25.3422265,24.926367 25.9828288,24.2220515 C26.6234311,23.5177359 26.9437322,22.5509028 26.9437322,21.3215521 L26.9437322,9.75797157 L34.5156513,9.75797157 Z" id="Path"></path>
                <path d="M48.0067355,31.5789474 C46.0593045,31.5789474 44.3232723,31.2524011 42.7986389,30.5993085 C41.2740054,29.9462159 40.0696731,29.0498143 39.185642,27.9101037 C38.3016108,26.7703931 37.808347,25.4834166 37.7058507,24.049174 L45.0087168,24.049174 C45.1112131,24.7406838 45.4315143,25.2785248 45.9696202,25.6626969 C46.5077261,26.046869 47.1739525,26.2389551 47.9682993,26.2389551 C48.5832775,26.2389551 49.0701353,26.1108977 49.4288726,25.8547829 C49.7876098,25.5986682 49.9669785,25.265719 49.9669785,24.8559355 C49.9669785,24.3180945 49.6723014,23.9211167 49.0829473,23.6650019 C48.4935932,23.4088872 47.5198777,23.127161 46.1618009,22.8198233 C44.6243554,22.5124856 43.3431508,22.1667307 42.3181872,21.7825586 C41.2932235,21.3983865 40.4027863,20.7709054 39.6468756,19.9001153 C38.8909649,19.0293251 38.5130096,17.8511973 38.5130096,16.3657318 C38.5130096,15.0851582 38.8589348,13.926239 39.5507853,12.8889743 C40.2426357,11.8517096 41.2611934,11.0257395 42.6064582,10.4110642 C43.951723,9.79638878 45.5724468,9.48905109 47.4686296,9.48905109 C50.2872796,9.48905109 52.5037635,10.1805609 54.1180813,11.5635805 C55.7323991,12.9466001 56.6676784,14.7650147 56.9239193,17.0188244 L50.120723,17.0188244 C49.9926026,16.3273146 49.6915195,15.7958766 49.2174738,15.4245102 C48.7434281,15.0531438 48.1092318,14.8674606 47.314885,14.8674606 C46.6999068,14.8674606 46.2322671,14.9827123 45.911966,15.2132155 C45.5916648,15.4437188 45.4315143,15.7638622 45.4315143,16.1736458 C45.4315143,16.6858753 45.7261913,17.0764502 46.3155454,17.3453707 C46.9048995,17.6142912 47.8529909,17.8896145 49.1598196,18.1713408 C50.7228892,18.5042899 52.0233118,18.8756563 53.0610875,19.2854399 C54.0988632,19.6952235 55.0085185,20.3547189 55.7900533,21.2639262 C56.5715881,22.1731336 56.9623555,23.4088872 56.9623555,24.9711871 C56.9623555,26.2261493 56.5972122,27.3530542 55.8669256,28.3519017 C55.1366389,29.3507491 54.0988632,30.138302 52.7535984,30.7145601 C51.4083336,31.2908183 49.826046,31.5789474 48.0067355,31.5789474 Z" id="Path"></path>
                <path d="M72.2983742,16.0199769 L68.9159942,16.0199769 L68.9159942,31.3100269 L61.3440751,31.3100269 L61.3440751,16.0199769 L58.9994707,16.0199769 L58.9994707,9.75797157 L61.3440751,9.75797157 L61.3440751,9.56588552 C61.3440751,6.79984633 62.15764,4.68049686 63.7847698,3.20783711 C65.4118996,1.73517736 67.750098,0.998847484 70.7993649,0.998847484 C71.4143431,0.998847484 71.8883888,1.01165322 72.221502,1.03726469 L72.221502,7.45293892 C72.0165092,7.42732744 71.7346442,7.41452171 71.3759069,7.41452171 C70.555936,7.41452171 69.9537699,7.60020489 69.5694085,7.97157126 C69.1850471,8.34293764 68.9672423,8.93840441 68.9159942,9.75797157 L72.2983742,9.75797157 L72.2983742,16.0199769 Z" id="Path"></path>
                <polygon id="Path" points="82.5223868 2.88129082 82.5223868 31.3100269 74.9889039 31.3100269 74.9889039 2.88129082"></polygon>
                <path d="M90.6324117,7.7602766 C89.299959,7.7602766 88.2301531,7.3953131 87.4229943,6.66538609 C86.6158354,5.93545909 86.2122559,5.01984889 86.2122559,3.91855551 C86.2122559,2.79165066 86.6158354,1.85683186 87.4229943,1.11409912 C88.2301531,0.371366372 89.299959,0 90.6324117,0 C91.9392404,0 92.9962342,0.371366372 93.8033931,1.11409912 C94.6105519,1.85683186 95.0141314,2.79165066 95.0141314,3.91855551 C95.0141314,5.01984889 94.6105519,5.93545909 93.8033931,6.66538609 C92.9962342,7.3953131 91.9392404,7.7602766 90.6324117,7.7602766 Z M94.360717,9.75797157 L94.360717,31.3100269 L86.8272341,31.3100269 L86.8272341,9.75797157 L94.360717,9.75797157 Z" id="Shape"></path>
                <polygon id="Path" points="112.118212 31.3100269 108.236163 25.8932002 105.161272 31.3100269 96.8975021 31.3100269 104.08506 20.1306185 96.590013 9.75797157 105.045963 9.75797157 108.928013 15.1747983 112.04134 9.75797157 120.30511 9.75797157 112.963807 20.7452939 120.574163 31.3100269"></polygon>
            </g>
        </g>
    </g>
</svg>